<?xml version="1.0" encoding="utf-8"?>
<!-- Svg Vector Icons : http://www.onlinewebfonts.com/icon -->
<!DOCTYPE svg PUBLIC "-//W3C//DTD SVG 1.1//EN" "http://www.w3.org/Graphics/SVG/1.1/DTD/svg11.dtd">
<svg version="1.1" xmlns="http://www.w3.org/2000/svg" xmlns:xlink="http://www.w3.org/1999/xlink" x="0px" y="0px" viewBox="0 0 1000 1000" enable-background="new 0 0 1000 1000" xml:space="preserve">
<metadata> Svg Vector Icons : http://www.onlinewebfonts.com/icon </metadata>
<g><path d="M485.3,184.6c231.3-2.7,425.7,57.3,433.8,133.7c8.1,76.5-173.1,140.8-404.5,143.4C283.3,464.5,89,404.5,80.9,328C72.8,251.6,254,187.3,485.3,184.6z"/><path d="M80.9,501.5c-0.4-3.3-0.4-6.6,0-9.8l0-151.5h0.2c-0.4,3.2-0.3,6.4,0,9.7c8.1,76.5,202.5,136.4,433.8,133.8c221.4-2.6,396.8-61.5,404.5-133.6v151.5h-0.3c-7.4,72.1-183,131.2-404.5,133.8C283.3,637.9,89,578,80.9,501.5L80.9,501.5z"/><path d="M80.9,678.8c-0.4-3.3-0.4-6.6,0-9.8l0-151.5h0.2c-0.4,3.2-0.3,6.5,0,9.7C89.2,603.7,283.6,663.6,515,661c221.4-2.6,396.8-61.6,404.5-133.6v151.4h-0.3c-7.4,72.2-183,131.2-404.5,133.8C283.3,815.2,89,755.3,80.9,678.8L80.9,678.8z"/><path d="M80.9,856.1c-0.4-3.3-0.4-6.6,0-9.8l0-151.5h0.2c-0.4,3.2-0.3,6.5,0,9.7C89.2,781.1,283.6,841,515,838.3c221.4-2.6,396.8-61.5,404.5-133.6v151.5h-0.3c-7.4,72.2-183,131.2-404.5,133.8C283.3,992.6,89,932.6,80.9,856.1z"/><path d="M102.3,85.2c9.1,6.5,19.5,9.8,31,9.8c6.6,0,11.5-1,14.8-3c3.3-2,5-4.5,5-7.6c0-2.7-1.3-5.2-3.9-7.6c-2.6-2.4-9.6-5.6-20.8-9.6c-17.7-6.5-26.5-16-26.5-28.4c0-9.1,4-16.2,12-21.3c8-5,18.6-7.6,31.8-7.6c11.1,0,20.3,1.2,27.8,3.7v19.7c-7.6-4.5-16.5-6.7-26.7-6.7c-5.9,0-10.7,0.9-14.2,2.8c-3.6,1.9-5.3,4.4-5.3,7.6c0,2.5,1.2,4.9,3.6,7c2.4,2.1,8.5,5,18.1,8.7c11.3,4.2,19,8.6,23.2,13.3c4.2,4.6,6.3,10.2,6.3,16.6c0,9.4-3.8,16.6-11.5,21.6c-7.7,5-18.6,7.4-32.8,7.4c-13,0-23.6-1.8-31.9-5.5V85.2L102.3,85.2z"/><path d="M308.5,137.4c-4.8,1.2-10.5,1.8-17.2,1.8c-7.7,0-15.1-1.8-22.2-5.5c-7.1-3.7-16.2-11.1-27.3-22.2c-15.5-0.4-28-5.3-37.4-14.7c-9.4-9.3-14.1-20.9-14.1-34.7c0-15.6,5.2-28.2,15.5-37.8c10.3-9.5,24.1-14.3,41.3-14.3c15.8,0,28.7,4.6,38.6,13.8c10,9.2,15,21.3,15,36.3c0,11.8-3.1,21.9-9.1,30.4c-6.1,8.5-14.7,14.4-26,17.8c4.8,4.5,9.4,7.8,14,9.9c4.6,2.1,10.4,3.2,17.4,3.2c4.3,0,8.1-0.6,11.4-1.7V137.4L308.5,137.4z M215.8,60.9c0,9.9,2.7,17.8,8.1,23.7c5.4,5.9,12.6,8.9,21.7,8.9c9.3,0,16.6-2.8,21.9-8.6c5.3-5.7,8-13.6,8-23.6c0-10.4-2.6-18.6-7.8-24.4c-5.2-5.8-12.3-8.8-21.5-8.8c-9.3,0-16.7,3-22.2,9C218.5,43.2,215.8,51.1,215.8,60.9L215.8,60.9z"/><path d="M386.3,109.9h-66.4V11.6H344v81.1h42.3V109.9z"/><path d="M441.1,85.2c9.1,6.5,19.5,9.8,31,9.8c6.6,0,11.5-1,14.8-3c3.3-2,5-4.5,5-7.6c0-2.7-1.3-5.2-4-7.6c-2.6-2.4-9.6-5.6-20.8-9.6c-17.7-6.5-26.5-16-26.5-28.4c0-9.1,4-16.2,12-21.3c8-5,18.6-7.6,31.8-7.6c11.1,0,20.3,1.2,27.8,3.7v19.7c-7.6-4.5-16.5-6.7-26.6-6.7c-5.9,0-10.7,0.9-14.3,2.8c-3.5,1.9-5.3,4.4-5.3,7.6c0,2.5,1.2,4.9,3.6,7c2.4,2.1,8.5,5,18.1,8.7c11.2,4.2,19,8.6,23.2,13.3c4.2,4.6,6.3,10.2,6.3,16.6c0,9.4-3.8,16.6-11.5,21.6c-7.7,5-18.6,7.4-32.8,7.4c-13,0-23.6-1.8-31.9-5.5V85.2L441.1,85.2z"/><path d="M605.7,80.6h-53.2c0.8,10.9,8.4,16.3,22.6,16.3c8.9,0,16.8-1.9,23.6-5.7v15c-7.4,3.6-17,5.4-28.9,5.4c-12.9,0-22.9-3.2-30-9.5c-7.1-6.3-10.7-15.1-10.7-26.3c0-11.2,3.8-20.3,11.4-27.3c7.6-7,17.1-10.5,28.6-10.5c11.4,0,20.4,3,26.8,9c6.5,6,9.7,14.3,9.7,24.8V80.6L605.7,80.6z M583.7,67.8c0-10.5-4.9-15.8-14.7-15.8c-4,0-7.6,1.5-10.7,4.3c-3.1,2.9-5.1,6.7-5.9,11.4L583.7,67.8L583.7,67.8z"/><path d="M672.5,58.3c-2.9-1.4-6.4-2.2-10.4-2.2c-5.3,0-9.6,1.8-12.8,5.3c-3.1,3.5-4.7,8.4-4.7,14.6v33.7H621V39.7h23.6v13.2h0.3c3.9-9.6,11-14.4,21.3-14.4c2.8,0,4.9,0.3,6.4,0.8V58.3L672.5,58.3z"/><path d="M766.3,39.7L736,109.9h-26.7l-28.9-70.1h25.3l14.8,44.1c1.6,4.8,2.5,8.9,2.7,12.1h0.4c0.4-3.3,1.3-7.3,2.8-11.7l15.1-44.5L766.3,39.7L766.3,39.7z"/><path d="M847.4,80.6h-53.2c0.8,10.9,8.4,16.3,22.6,16.3c8.9,0,16.8-1.9,23.6-5.7v15c-7.4,3.6-17,5.4-28.9,5.4c-12.9,0-22.9-3.2-30-9.5s-10.7-15.1-10.7-26.3c0-11.2,3.8-20.3,11.4-27.3c7.6-7,17.1-10.5,28.6-10.5c11.4,0,20.4,3,26.8,9c6.5,6,9.7,14.3,9.7,24.8V80.6L847.4,80.6z M825.4,67.8c0-10.5-4.9-15.8-14.7-15.8c-4,0-7.6,1.5-10.7,4.3c-3.1,2.9-5.1,6.7-5.9,11.4L825.4,67.8L825.4,67.8z"/><path d="M914.2,58.3c-2.9-1.4-6.4-2.2-10.4-2.2c-5.3,0-9.6,1.8-12.8,5.3c-3.1,3.5-4.7,8.4-4.7,14.6v33.7h-23.6V39.7h23.6v13.2h0.3c3.9-9.6,11-14.4,21.3-14.4c2.8,0,4.9,0.3,6.4,0.8V58.3L914.2,58.3z"/></g>
</svg>